<svg xmlns="http://www.w3.org/2000/svg" width="512" height="512" viewBox="0 0 512 512">
  <defs>
    <linearGradient id="g" x1="0%" y1="0%" x2="100%" y2="100%">
      <stop offset="0%" style="stop-color:#38bdf8"/>
      <stop offset="100%" style="stop-color:#818cf8"/>
    </linearGradient>
  </defs>
  <rect width="512" height="512" rx="96" fill="#111420"/>
  <!-- Gear -->
  <g transform="translate(256,240)" fill="url(#g)">
    <circle cx="0" cy="0" r="48" fill="none" stroke="url(#g)" stroke-width="20"/>
    <rect x="-12" y="-90" width="24" height="36" rx="6"/>
    <rect x="-12" y="54" width="24" height="36" rx="6"/>
    <rect x="-90" y="-12" width="36" height="24" rx="6"/>
    <rect x="54" y="-12" width="36" height="24" rx="6"/>
    <rect x="48" y="-68" width="24" height="36" rx="6" transform="rotate(45)"/>
    <rect x="-72" y="32" width="24" height="36" rx="6" transform="rotate(45)"/>
    <rect x="32" y="48" width="36" height="24" rx="6" transform="rotate(45)"/>
    <rect x="-68" y="-72" width="36" height="24" rx="6" transform="rotate(45)"/>
  </g>
  <!-- Wrench -->
  <g transform="translate(256,240) rotate(-45)" stroke="url(#g)" fill="none" stroke-width="14" stroke-linecap="round">
    <line x1="0" y1="30" x2="0" y2="130"/>
    <path d="M-20,130 L0,160 L20,130" fill="url(#g)" stroke="none"/>
  </g>
  <!-- Text -->
  <text x="256" y="400" text-anchor="middle" fill="white" font-family="Inter,Arial,sans-serif" font-size="52" font-weight="700">AutoCare</text>
</svg>
